<?xml version="1.0" encoding="UTF-8"?>
<!-- generated by brandbook/src/build.mjs - edit candidates.mjs or geometry.mjs, not this file -->
<svg xmlns="http://www.w3.org/2000/svg" viewBox="0 0 364 104" role="img" aria-labelledby="t">
  <title id="t">Rindle logo candidate D - Outflow e (monochrome)</title>
  <desc>Media flows out of rindle, ready - the tail carries a delivered asset.</desc>
<g transform="translate(12 84)">
  <path d="M17.9 0L7.6 0L7.6 -49.3L17.7 -49.3L17.7 -43.5L19.3 -43.5Q20.5 -46.6 23.1 -48.05Q25.7 -49.5 29.7 -49.5L29.7 -49.5L35.6 -49.5L35.6 -40.2L29.3 -40.2Q24.2 -40.2 21.05 -37.45Q17.9 -34.7 17.9 -29L17.9 -29L17.9 0 M56.6 0L46.3 0L46.3 -49.3L56.6 -49.3L56.6 0 M51.5 -56L51.5 -56Q48.5 -56 46.45 -57.95Q44.4 -59.9 44.4 -63L44.4 -63Q44.4 -66.1 46.45 -68.05Q48.5 -70 51.5 -70L51.5 -70Q54.5 -70 56.55 -68.05Q58.6 -66.1 58.6 -63L58.6 -63Q58.6 -59.9 56.55 -57.95Q54.5 -56 51.5 -56 M82.2 0L71.9 0L71.9 -49.3L82 -49.3L82 -41.9L83.6 -41.9Q85 -44.9 88.6 -47.5Q92.2 -50.1 99.3 -50.1L99.3 -50.1Q104.9 -50.1 109.25 -47.6Q113.6 -45.1 116.1 -40.5Q118.6 -35.9 118.6 -29.6L118.6 -29.6L118.6 0L108.3 0L108.3 -28.8Q108.3 -35.2 105.1 -38.25Q101.9 -41.3 96.3 -41.3L96.3 -41.3Q89.9 -41.3 86.05 -37.1Q82.2 -32.9 82.2 -24.9L82.2 -24.9L82.2 0 M153.8 1.4L153.8 1.4Q147.6 1.4 142.45 -1.6Q137.3 -4.6 134.15 -10.25Q131 -15.9 131 -23.9L131 -23.9L131 -25.4Q131 -33.3 134.1 -38.95Q137.2 -44.6 142.4 -47.65Q147.6 -50.7 153.8 -50.7L153.8 -50.7Q161 -50.7 164.85 -48.15Q168.7 -45.6 170.4 -42.6L170.4 -42.6L172 -42.6L172 -70L182.3 -70L182.3 0L172.2 0L172.2 -7L170.6 -7Q168.7 -3.8 164.85 -1.2Q161 1.4 153.8 1.4 M156.7 -7.6L156.7 -7.6Q163.4 -7.6 167.75 -11.9Q172.1 -16.2 172.1 -24.2L172.1 -24.2L172.1 -25.1Q172.1 -33 167.75 -37.3Q163.4 -41.6 156.7 -41.6L156.7 -41.6Q150 -41.6 145.7 -37.3Q141.4 -33 141.4 -25.1L141.4 -25.1L141.4 -24.2Q141.4 -16.2 145.75 -11.9Q150.1 -7.6 156.7 -7.6 M207.8 0L197.5 0L197.5 -70L207.8 -70L207.8 0 M245.7 1.4L245.7 1.4Q238.2 1.4 232.6 -1.75Q227 -4.9 223.85 -10.6Q220.7 -16.3 220.7 -24L220.7 -24L220.7 -25.2Q220.7 -32.9 223.85 -38.6Q227 -44.3 232.5 -47.5Q238 -50.7 245.3 -50.7L245.3 -50.7Q252.4 -50.7 257.75 -47.55Q263.1 -44.4 266.1 -38.8Q269.1 -33.2 269.1 -25.7L269.1 -25.7L269.1 -21.8L231.2 -21.8Q231.4 -15.3 235.55 -11.45Q239.7 -7.6 245.9 -7.6L245.9 -7.6Q251.7 -7.6 254.65 -10.2Q257.6 -12.8 259.2 -16.2L259.2 -16.2L267.8 -11.8Q266.3 -9 263.7 -5.9Q261.1 -2.8 256.7 -0.7Q252.3 1.4 245.7 1.4 M231.3 -29.7L231.3 -29.7L258.7 -29.7Q258.2 -35.2 254.6 -38.4Q251 -41.6 245.2 -41.6L245.2 -41.6Q239.4 -41.6 235.75 -38.4Q232.1 -35.2 231.3 -29.7" fill="currentColor"/>
  <path d="M 262 -8.5 C 273 -3.5 283 -0.5 295 1 C 309 2.8 322 2.4 336 0.5" fill="none" stroke="currentColor" stroke-width="4" stroke-linecap="round" stroke-linejoin="round"/>
  <path d="M 312.6 1.8 a 4.4 4.4 0 1 0 8.8 0 a 4.4 4.4 0 1 0 -8.8 0 Z" fill="currentColor"/>
</g>
</svg>
