<?xml version="1.0" encoding="UTF-8"?>
<!-- generated by brandbook/src/build.mjs - edit candidates.mjs or geometry.mjs, not this file -->
<svg xmlns="http://www.w3.org/2000/svg" viewBox="0 0 315.2 146" role="img" aria-labelledby="t">
  <title id="t">Rindle logo candidate B - Headwater r (with subtitle)</title>
  <desc>The r itself is the channel: it shelters the asset and dips below the baseline. Subtitle variant carries the tagline; the main lockup never does.</desc>
<g transform="translate(12 82)">
  <path d="M 12.8 -5.2 L 12.8 -28 C 12.8 -39.5 18 -44.2 26.5 -44.2 C 32.5 -44.2 36.5 -41.5 38.5 -38" fill="none" stroke="#123A35" stroke-width="10.3" stroke-linecap="round" stroke-linejoin="round"/>
  <path d="M 38.5 -38 C 42.5 -28 41.5 -12 46.5 -3 C 49.5 2.5 54.5 4.5 60 3.5" fill="none" stroke="#123A35" stroke-width="6" stroke-linecap="round" stroke-linejoin="round"/>
  <path d="M 42.2 -4.5 a 4.4 4.4 0 1 0 8.8 0 a 4.4 4.4 0 1 0 -8.8 0 Z" fill="#32D08C"/>
  <path d="M17.9 0L7.6 0L7.6 -49.3L17.9 -49.3L17.9 0 M12.8 -56L12.8 -56Q9.8 -56 7.75 -57.95Q5.7 -59.9 5.7 -63L5.7 -63Q5.7 -66.1 7.75 -68.05Q9.8 -70 12.8 -70L12.8 -70Q15.8 -70 17.85 -68.05Q19.9 -66.1 19.9 -63L19.9 -63Q19.9 -59.9 17.85 -57.95Q15.8 -56 12.8 -56 M43.5 0L33.2 0L33.2 -49.3L43.3 -49.3L43.3 -41.9L44.9 -41.9Q46.3 -44.9 49.9 -47.5Q53.5 -50.1 60.6 -50.1L60.6 -50.1Q66.2 -50.1 70.55 -47.6Q74.9 -45.1 77.4 -40.5Q79.9 -35.9 79.9 -29.6L79.9 -29.6L79.9 0L69.6 0L69.6 -28.8Q69.6 -35.2 66.4 -38.25Q63.2 -41.3 57.6 -41.3L57.6 -41.3Q51.2 -41.3 47.35 -37.1Q43.5 -32.9 43.5 -24.9L43.5 -24.9L43.5 0 M115.1 1.4L115.1 1.4Q108.9 1.4 103.75 -1.6Q98.6 -4.6 95.45 -10.25Q92.3 -15.9 92.3 -23.9L92.3 -23.9L92.3 -25.4Q92.3 -33.3 95.4 -38.95Q98.5 -44.6 103.7 -47.65Q108.9 -50.7 115.1 -50.7L115.1 -50.7Q122.3 -50.7 126.15 -48.15Q130 -45.6 131.7 -42.6L131.7 -42.6L133.3 -42.6L133.3 -70L143.6 -70L143.6 0L133.5 0L133.5 -7L131.9 -7Q130 -3.8 126.15 -1.2Q122.3 1.4 115.1 1.4 M118 -7.6L118 -7.6Q124.7 -7.6 129.05 -11.9Q133.4 -16.2 133.4 -24.2L133.4 -24.2L133.4 -25.1Q133.4 -33 129.05 -37.3Q124.7 -41.6 118 -41.6L118 -41.6Q111.3 -41.6 107 -37.3Q102.7 -33 102.7 -25.1L102.7 -25.1L102.7 -24.2Q102.7 -16.2 107.05 -11.9Q111.4 -7.6 118 -7.6 M169.1 0L158.8 0L158.8 -70L169.1 -70L169.1 0 M207 1.4L207 1.4Q199.5 1.4 193.9 -1.75Q188.3 -4.9 185.15 -10.6Q182 -16.3 182 -24L182 -24L182 -25.2Q182 -32.9 185.15 -38.6Q188.3 -44.3 193.8 -47.5Q199.3 -50.7 206.6 -50.7L206.6 -50.7Q213.7 -50.7 219.05 -47.55Q224.4 -44.4 227.4 -38.8Q230.4 -33.2 230.4 -25.7L230.4 -25.7L230.4 -21.8L192.5 -21.8Q192.7 -15.3 196.85 -11.45Q201 -7.6 207.2 -7.6L207.2 -7.6Q213 -7.6 215.95 -10.2Q218.9 -12.8 220.5 -16.2L220.5 -16.2L229.1 -11.8Q227.6 -9 225 -5.9Q222.4 -2.8 218 -0.7Q213.6 1.4 207 1.4 M192.6 -29.7L192.6 -29.7L220 -29.7Q219.5 -35.2 215.9 -38.4Q212.3 -41.6 206.5 -41.6L206.5 -41.6Q200.7 -41.6 197.05 -38.4Q193.4 -35.2 192.6 -29.7" fill="#123A35" transform="translate(56 0)"/>
  <path d="M4.08 0L1.82 0L1.82 -16.03L5.57 -16.03L9.84 -2.93L14.11 -16.03L17.86 -16.03L17.86 0L15.6 0L15.6 -13.68L10.97 0L8.74 0L4.08 -13.68L4.08 0 M26.42 0.29L26.42 0.29Q24.55 0.29 23.26 -0.54Q21.96 -1.37 21.28 -2.77Q20.59 -4.18 20.59 -5.93L20.59 -5.93Q20.59 -7.82 21.36 -9.2Q22.13 -10.58 23.44 -11.34Q24.74 -12.1 26.38 -12.1L26.38 -12.1Q27.79 -12.1 28.87 -11.53Q29.95 -10.97 30.66 -10.02Q31.37 -9.07 31.69 -7.87Q32.02 -6.67 31.92 -5.4L31.92 -5.4L22.75 -5.4Q22.8 -3.91 23.41 -3.05Q24.02 -2.18 24.86 -1.84Q25.7 -1.49 26.42 -1.49L26.42 -1.49Q27.43 -1.49 28.12 -1.81Q28.8 -2.14 29.21 -2.66L29.21 -2.66L31.15 -2.09Q30.5 -1.06 29.3 -0.38Q28.1 0.29 26.42 0.29 M22.78 -7.01L22.78 -7.01L29.78 -7.01Q29.78 -7.85 29.36 -8.62Q28.94 -9.38 28.19 -9.88Q27.43 -10.37 26.38 -10.37L26.38 -10.37Q25.49 -10.37 24.7 -10.03Q23.9 -9.7 23.39 -8.95Q22.87 -8.21 22.78 -7.01 M38.64 0.29L38.64 0.29Q37.3 0.29 36.12 -0.44Q34.94 -1.18 34.24 -2.56Q33.53 -3.94 33.53 -5.9L33.53 -5.9Q33.53 -7.87 34.24 -9.25Q34.94 -10.63 36.12 -11.36Q37.3 -12.1 38.64 -12.1L38.64 -12.1Q40.06 -12.1 41.02 -11.53Q41.98 -10.97 42.5 -10.03L42.5 -10.03L42.5 -16.03L44.52 -16.03L44.52 -4.49Q44.52 -3.89 44.57 -2.72Q44.62 -1.56 44.93 0L44.93 0L43.03 0L42.5 -1.8Q41.98 -0.84 41.02 -0.28Q40.06 0.29 38.64 0.29 M39.17 -1.44L39.17 -1.44Q40.7 -1.44 41.63 -2.62Q42.55 -3.79 42.55 -5.9L42.55 -5.9Q42.55 -8.04 41.63 -9.2Q40.7 -10.37 39.17 -10.37L39.17 -10.37Q37.63 -10.37 36.71 -9.2Q35.78 -8.04 35.78 -5.9L35.78 -5.9Q35.78 -3.79 36.71 -2.62Q37.63 -1.44 39.17 -1.44 M49.9 -14.16L49.9 -14.16Q49.3 -14.16 48.85 -14.6Q48.41 -15.05 48.41 -15.67L48.41 -15.67Q48.41 -16.3 48.85 -16.73Q49.3 -17.16 49.9 -17.16L49.9 -17.16Q50.52 -17.16 50.96 -16.73Q51.41 -16.3 51.41 -15.67L51.41 -15.67Q51.41 -15.05 50.96 -14.6Q50.52 -14.16 49.9 -14.16 M50.9 0L48.89 0L48.89 -10.3L47.23 -10.3L47.23 -11.9L50.9 -11.9L50.9 0 M57.84 0.29L57.84 0.29Q56.71 0.29 55.78 -0.12Q54.84 -0.53 54.29 -1.3Q53.74 -2.06 53.74 -3.14L53.74 -3.14Q53.74 -4.56 54.73 -5.38Q55.73 -6.19 57.54 -6.64Q59.35 -7.08 61.78 -7.34L61.78 -7.34Q61.82 -8.86 61.18 -9.67Q60.53 -10.49 59.09 -10.49L59.09 -10.49Q58.01 -10.49 57.32 -10Q56.64 -9.5 56.45 -8.64L56.45 -8.64L54.5 -9.22Q54.98 -10.58 56.22 -11.34Q57.46 -12.1 59.06 -12.1L59.06 -12.1Q61.54 -12.1 62.68 -10.93Q63.82 -9.77 63.82 -7.27L63.82 -7.27L63.82 -4.49Q63.82 -3 63.94 -1.92Q64.06 -0.84 64.22 0L64.22 0L62.38 0L61.9 -1.63Q61.37 -0.74 60.38 -0.23Q59.4 0.29 57.84 0.29 M58.27 -1.32L58.27 -1.32Q59.21 -1.32 60.05 -1.66Q60.89 -1.99 61.42 -2.8Q61.94 -3.6 61.94 -4.99L61.94 -4.99L61.94 -5.74Q60.12 -5.54 58.78 -5.27Q57.43 -4.99 56.7 -4.5Q55.97 -4.01 55.97 -3.19L55.97 -3.19Q55.97 -2.35 56.58 -1.84Q57.19 -1.32 58.27 -1.32 M67.85 3.19L66.53 3.19L67.66 0.26Q67.1 0.17 66.73 -0.26Q66.36 -0.7 66.36 -1.27L66.36 -1.27Q66.36 -1.9 66.82 -2.35Q67.27 -2.81 67.9 -2.81L67.9 -2.81Q68.54 -2.81 69 -2.35Q69.46 -1.9 69.46 -1.27L69.46 -1.27Q69.46 -0.98 69.34 -0.67L69.34 -0.67L67.85 3.19 M80.78 0L78.77 0L78.77 -11.9L80.26 -11.9L80.78 -10.1Q81.29 -10.94 82.16 -11.52Q83.04 -12.1 84.36 -12.1L84.36 -12.1Q85.73 -12.1 86.57 -11.54Q87.41 -10.99 87.79 -10.01L87.79 -10.01Q88.51 -11.11 89.53 -11.6Q90.55 -12.1 91.8 -12.1L91.8 -12.1Q93.86 -12.1 94.75 -10.84Q95.64 -9.58 95.64 -7.54L95.64 -7.54L95.64 0L93.62 0L93.62 -6.94Q93.62 -7.85 93.44 -8.63Q93.26 -9.41 92.72 -9.89Q92.18 -10.37 91.08 -10.37L91.08 -10.37Q89.78 -10.37 89 -9.37Q88.22 -8.38 88.22 -6.46L88.22 -6.46L88.22 0L86.21 0L86.21 -6.94Q86.21 -7.85 86.03 -8.63Q85.85 -9.41 85.31 -9.89Q84.77 -10.37 83.66 -10.37L83.66 -10.37Q82.37 -10.37 81.58 -9.37Q80.78 -8.38 80.78 -6.46L80.78 -6.46L80.78 0 M102.29 0.29L102.29 0.29Q101.16 0.29 100.22 -0.12Q99.29 -0.53 98.74 -1.3Q98.18 -2.06 98.18 -3.14L98.18 -3.14Q98.18 -4.56 99.18 -5.38Q100.18 -6.19 101.99 -6.64Q103.8 -7.08 106.22 -7.34L106.22 -7.34Q106.27 -8.86 105.62 -9.67Q104.98 -10.49 103.54 -10.49L103.54 -10.49Q102.46 -10.49 101.77 -10Q101.09 -9.5 100.9 -8.64L100.9 -8.64L98.95 -9.22Q99.43 -10.58 100.67 -11.34Q101.9 -12.1 103.51 -12.1L103.51 -12.1Q105.98 -12.1 107.12 -10.93Q108.26 -9.77 108.26 -7.27L108.26 -7.27L108.26 -4.49Q108.26 -3 108.38 -1.92Q108.5 -0.84 108.67 0L108.67 0L106.82 0L106.34 -1.63Q105.82 -0.74 104.83 -0.23Q103.85 0.29 102.29 0.29 M102.72 -1.32L102.72 -1.32Q103.66 -1.32 104.5 -1.66Q105.34 -1.99 105.86 -2.8Q106.39 -3.6 106.39 -4.99L106.39 -4.99L106.39 -5.74Q104.57 -5.54 103.22 -5.27Q101.88 -4.99 101.15 -4.5Q100.42 -4.01 100.42 -3.19L100.42 -3.19Q100.42 -2.35 101.03 -1.84Q101.64 -1.32 102.72 -1.32 M115.92 0.29L115.92 0.29Q114.58 0.29 113.4 -0.44Q112.22 -1.18 111.52 -2.56Q110.81 -3.94 110.81 -5.9L110.81 -5.9Q110.81 -7.87 111.52 -9.25Q112.22 -10.63 113.4 -11.36Q114.58 -12.1 115.92 -12.1L115.92 -12.1Q117.34 -12.1 118.3 -11.53Q119.26 -10.97 119.78 -10.03L119.78 -10.03L119.78 -16.03L121.8 -16.03L121.8 -4.49Q121.8 -3.89 121.85 -2.72Q121.9 -1.56 122.21 0L122.21 0L120.31 0L119.78 -1.8Q119.26 -0.84 118.3 -0.28Q117.34 0.29 115.92 0.29 M116.45 -1.44L116.45 -1.44Q117.98 -1.44 118.91 -2.62Q119.83 -3.79 119.83 -5.9L119.83 -5.9Q119.83 -8.04 118.91 -9.2Q117.98 -10.37 116.45 -10.37L116.45 -10.37Q114.91 -10.37 113.99 -9.2Q113.06 -8.04 113.06 -5.9L113.06 -5.9Q113.06 -3.79 113.99 -2.62Q114.91 -1.44 116.45 -1.44 M130.18 0.29L130.18 0.29Q128.3 0.29 127.01 -0.54Q125.71 -1.37 125.03 -2.77Q124.34 -4.18 124.34 -5.93L124.34 -5.93Q124.34 -7.82 125.11 -9.2Q125.88 -10.58 127.19 -11.34Q128.5 -12.1 130.13 -12.1L130.13 -12.1Q131.54 -12.1 132.62 -11.53Q133.7 -10.97 134.41 -10.02Q135.12 -9.07 135.44 -7.87Q135.77 -6.67 135.67 -5.4L135.67 -5.4L126.5 -5.4Q126.55 -3.91 127.16 -3.05Q127.78 -2.18 128.62 -1.84Q129.46 -1.49 130.18 -1.49L130.18 -1.49Q131.18 -1.49 131.87 -1.81Q132.55 -2.14 132.96 -2.66L132.96 -2.66L134.9 -2.09Q134.26 -1.06 133.06 -0.38Q131.86 0.29 130.18 0.29 M126.53 -7.01L126.53 -7.01L133.54 -7.01Q133.54 -7.85 133.12 -8.62Q132.7 -9.38 131.94 -9.88Q131.18 -10.37 130.13 -10.37L130.13 -10.37Q129.24 -10.37 128.45 -10.03Q127.66 -9.7 127.14 -8.95Q126.62 -8.21 126.53 -7.01 M149.11 0.29L149.11 0.29Q147.77 0.29 146.59 -0.44Q145.42 -1.18 144.71 -2.56Q144 -3.94 144 -5.9L144 -5.9Q144 -7.87 144.71 -9.25Q145.42 -10.63 146.59 -11.36Q147.77 -12.1 149.11 -12.1L149.11 -12.1Q150.53 -12.1 151.49 -11.53Q152.45 -10.97 152.98 -10.03L152.98 -10.03L152.98 -16.03L154.99 -16.03L154.99 -4.49Q154.99 -3.89 155.04 -2.72Q155.09 -1.56 155.4 0L155.4 0L153.5 0L152.98 -1.8Q152.45 -0.84 151.49 -0.28Q150.53 0.29 149.11 0.29 M149.64 -1.44L149.64 -1.44Q151.18 -1.44 152.1 -2.62Q153.02 -3.79 153.02 -5.9L153.02 -5.9Q153.02 -8.04 152.1 -9.2Q151.18 -10.37 149.64 -10.37L149.64 -10.37Q148.1 -10.37 147.18 -9.2Q146.26 -8.04 146.26 -5.9L146.26 -5.9Q146.26 -3.79 147.18 -2.62Q148.1 -1.44 149.64 -1.44 M162.07 0.29L162.07 0.29Q160.68 0.29 159.84 -0.3Q159 -0.89 158.63 -1.93Q158.26 -2.98 158.26 -4.32L158.26 -4.32L158.26 -11.93L160.27 -11.93L160.27 -4.8Q160.27 -3.48 160.58 -2.76Q160.9 -2.04 161.46 -1.76Q162.02 -1.49 162.77 -1.49L162.77 -1.49Q164.18 -1.49 164.99 -2.48Q165.79 -3.48 165.79 -5.38L165.79 -5.38L165.79 -11.93L167.81 -11.93L167.81 0L166.3 0L165.79 -1.73Q165.29 -0.86 164.42 -0.29Q163.56 0.29 162.07 0.29 M173.18 0L171.17 0L171.17 -11.9L172.63 -11.9L173.28 -9.7Q173.9 -10.78 174.97 -11.44Q176.04 -12.1 177.53 -12.1L177.53 -12.1L177.53 -10.01Q177.36 -10.01 177.18 -10.01Q177 -10.01 176.83 -9.98L176.83 -9.98Q174.79 -9.82 173.99 -8.57Q173.18 -7.32 173.18 -5.11L173.18 -5.11L173.18 0 M182.3 0.29L182.3 0.29Q181.18 0.29 180.24 -0.12Q179.3 -0.53 178.75 -1.3Q178.2 -2.06 178.2 -3.14L178.2 -3.14Q178.2 -4.56 179.2 -5.38Q180.19 -6.19 182 -6.64Q183.82 -7.08 186.24 -7.34L186.24 -7.34Q186.29 -8.86 185.64 -9.67Q184.99 -10.49 183.55 -10.49L183.55 -10.49Q182.47 -10.49 181.79 -10Q181.1 -9.5 180.91 -8.64L180.91 -8.64L178.97 -9.22Q179.45 -10.58 180.68 -11.34Q181.92 -12.1 183.53 -12.1L183.53 -12.1Q186 -12.1 187.14 -10.93Q188.28 -9.77 188.28 -7.27L188.28 -7.27L188.28 -4.49Q188.28 -3 188.4 -1.92Q188.52 -0.84 188.69 0L188.69 0L186.84 0L186.36 -1.63Q185.83 -0.74 184.85 -0.23Q183.86 0.29 182.3 0.29 M182.74 -1.32L182.74 -1.32Q183.67 -1.32 184.51 -1.66Q185.35 -1.99 185.88 -2.8Q186.41 -3.6 186.41 -4.99L186.41 -4.99L186.41 -5.74Q184.58 -5.54 183.24 -5.27Q181.9 -4.99 181.16 -4.5Q180.43 -4.01 180.43 -3.19L180.43 -3.19Q180.43 -2.35 181.04 -1.84Q181.66 -1.32 182.74 -1.32 M197.47 0.29L197.47 0.29Q196.08 0.29 195.12 -0.28Q194.16 -0.84 193.61 -1.8L193.61 -1.8L193.08 0L191.59 0L191.59 -16.03L193.61 -16.03L193.61 -10.03Q194.16 -10.97 195.12 -11.53Q196.08 -12.1 197.47 -12.1L197.47 -12.1Q198.84 -12.1 200 -11.36Q201.17 -10.63 201.88 -9.25Q202.58 -7.87 202.58 -5.9L202.58 -5.9Q202.58 -3.94 201.88 -2.56Q201.17 -1.18 200 -0.44Q198.84 0.29 197.47 0.29 M196.94 -1.44L196.94 -1.44Q198.48 -1.44 199.4 -2.62Q200.33 -3.79 200.33 -5.9L200.33 -5.9Q200.33 -8.04 199.4 -9.2Q198.48 -10.37 196.94 -10.37L196.94 -10.37Q195.41 -10.37 194.48 -9.2Q193.56 -8.04 193.56 -5.9L193.56 -5.9Q193.56 -3.79 194.48 -2.62Q195.41 -1.44 196.94 -1.44 M208.87 0L207.98 0Q206.86 0 206.24 -0.23Q205.63 -0.46 205.4 -1.1Q205.18 -1.75 205.18 -2.98L205.18 -2.98L205.18 -16.01L207.19 -16.01L207.19 -3.31Q207.19 -2.4 207.38 -2.09Q207.58 -1.78 208.42 -1.78L208.42 -1.78L208.87 -1.78L208.87 0 M215.98 0.29L215.98 0.29Q214.1 0.29 212.81 -0.54Q211.51 -1.37 210.83 -2.77Q210.14 -4.18 210.14 -5.93L210.14 -5.93Q210.14 -7.82 210.91 -9.2Q211.68 -10.58 212.99 -11.34Q214.3 -12.1 215.93 -12.1L215.93 -12.1Q217.34 -12.1 218.42 -11.53Q219.5 -10.97 220.21 -10.02Q220.92 -9.07 221.24 -7.87Q221.57 -6.67 221.47 -5.4L221.47 -5.4L212.3 -5.4Q212.35 -3.91 212.96 -3.05Q213.58 -2.18 214.42 -1.84Q215.26 -1.49 215.98 -1.49L215.98 -1.49Q216.98 -1.49 217.67 -1.81Q218.35 -2.14 218.76 -2.66L218.76 -2.66L220.7 -2.09Q220.06 -1.06 218.86 -0.38Q217.66 0.29 215.98 0.29 M212.33 -7.01L212.33 -7.01L219.34 -7.01Q219.34 -7.85 218.92 -8.62Q218.5 -9.38 217.74 -9.88Q216.98 -10.37 215.93 -10.37L215.93 -10.37Q215.04 -10.37 214.25 -10.03Q213.46 -9.7 212.94 -8.95Q212.42 -8.21 212.33 -7.01 M224.62 0.29L224.62 0.29Q223.99 0.29 223.54 -0.17Q223.08 -0.62 223.08 -1.25L223.08 -1.25Q223.08 -1.9 223.54 -2.35Q223.99 -2.81 224.62 -2.81L224.62 -2.81Q225.26 -2.81 225.72 -2.35Q226.18 -1.9 226.18 -1.25L226.18 -1.25Q226.18 -0.62 225.72 -0.17Q225.26 0.29 224.62 0.29" fill="#52605A" transform="translate(56 44)"/>
</g>
</svg>
