<?xml version="1.0" encoding="UTF-8"?>
<!-- generated by brandbook/src/build.mjs - edit candidates.mjs or geometry.mjs, not this file -->
<svg xmlns="http://www.w3.org/2000/svg" viewBox="0 0 315.2 104" role="img" aria-labelledby="t">
  <title id="t">Rindle logo candidate B - Headwater r (monochrome)</title>
  <desc>The r itself is the channel: it shelters the asset and dips below the baseline.</desc>
<g transform="translate(12 82)">
  <path d="M 12.8 -5.2 L 12.8 -28 C 12.8 -39.5 18 -44.2 26.5 -44.2 C 32.5 -44.2 36.5 -41.5 38.5 -38" fill="none" stroke="currentColor" stroke-width="10.3" stroke-linecap="round" stroke-linejoin="round"/>
  <path d="M 38.5 -38 C 42.5 -28 41.5 -12 46.5 -3 C 49.5 2.5 54.5 4.5 60 3.5" fill="none" stroke="currentColor" stroke-width="6" stroke-linecap="round" stroke-linejoin="round"/>
  <path d="M 42.2 -4.5 a 4.4 4.4 0 1 0 8.8 0 a 4.4 4.4 0 1 0 -8.8 0 Z" fill="currentColor"/>
  <path d="M17.9 0L7.6 0L7.6 -49.3L17.9 -49.3L17.9 0 M12.8 -56L12.8 -56Q9.8 -56 7.75 -57.95Q5.7 -59.9 5.7 -63L5.7 -63Q5.7 -66.1 7.75 -68.05Q9.8 -70 12.8 -70L12.8 -70Q15.8 -70 17.85 -68.05Q19.9 -66.1 19.9 -63L19.9 -63Q19.9 -59.9 17.85 -57.95Q15.8 -56 12.8 -56 M43.5 0L33.2 0L33.2 -49.3L43.3 -49.3L43.3 -41.9L44.9 -41.9Q46.3 -44.9 49.9 -47.5Q53.5 -50.1 60.6 -50.1L60.6 -50.1Q66.2 -50.1 70.55 -47.6Q74.9 -45.1 77.4 -40.5Q79.9 -35.9 79.9 -29.6L79.9 -29.6L79.9 0L69.6 0L69.6 -28.8Q69.6 -35.2 66.4 -38.25Q63.2 -41.3 57.6 -41.3L57.6 -41.3Q51.2 -41.3 47.35 -37.1Q43.5 -32.9 43.5 -24.9L43.5 -24.9L43.5 0 M115.1 1.4L115.1 1.4Q108.9 1.4 103.75 -1.6Q98.6 -4.6 95.45 -10.25Q92.3 -15.9 92.3 -23.9L92.3 -23.9L92.3 -25.4Q92.3 -33.3 95.4 -38.95Q98.5 -44.6 103.7 -47.65Q108.9 -50.7 115.1 -50.7L115.1 -50.7Q122.3 -50.7 126.15 -48.15Q130 -45.6 131.7 -42.6L131.7 -42.6L133.3 -42.6L133.3 -70L143.6 -70L143.6 0L133.5 0L133.5 -7L131.9 -7Q130 -3.8 126.15 -1.2Q122.3 1.4 115.1 1.4 M118 -7.6L118 -7.6Q124.7 -7.6 129.05 -11.9Q133.4 -16.2 133.4 -24.2L133.4 -24.2L133.4 -25.1Q133.4 -33 129.05 -37.3Q124.7 -41.6 118 -41.6L118 -41.6Q111.3 -41.6 107 -37.3Q102.7 -33 102.7 -25.1L102.7 -25.1L102.7 -24.2Q102.7 -16.2 107.05 -11.9Q111.4 -7.6 118 -7.6 M169.1 0L158.8 0L158.8 -70L169.1 -70L169.1 0 M207 1.4L207 1.4Q199.5 1.4 193.9 -1.75Q188.3 -4.9 185.15 -10.6Q182 -16.3 182 -24L182 -24L182 -25.2Q182 -32.9 185.15 -38.6Q188.3 -44.3 193.8 -47.5Q199.3 -50.7 206.6 -50.7L206.6 -50.7Q213.7 -50.7 219.05 -47.55Q224.4 -44.4 227.4 -38.8Q230.4 -33.2 230.4 -25.7L230.4 -25.7L230.4 -21.8L192.5 -21.8Q192.7 -15.3 196.85 -11.45Q201 -7.6 207.2 -7.6L207.2 -7.6Q213 -7.6 215.95 -10.2Q218.9 -12.8 220.5 -16.2L220.5 -16.2L229.1 -11.8Q227.6 -9 225 -5.9Q222.4 -2.8 218 -0.7Q213.6 1.4 207 1.4 M192.6 -29.7L192.6 -29.7L220 -29.7Q219.5 -35.2 215.9 -38.4Q212.3 -41.6 206.5 -41.6L206.5 -41.6Q200.7 -41.6 197.05 -38.4Q193.4 -35.2 192.6 -29.7" fill="currentColor" transform="translate(56 0)"/>
</g>
</svg>
