<?xml version="1.0" encoding="UTF-8"?>
<!-- generated by brandbook/src/build.mjs - edit candidates.mjs or geometry.mjs, not this file -->
<svg xmlns="http://www.w3.org/2000/svg" viewBox="0 0 58 113" role="img" aria-labelledby="t">
  <title id="t">Rindle logo candidate C - Branch dot (mark)</title>
  <desc>The dot on the i is the original asset branching into variants.</desc>
<g transform="translate(18 99)">
  <path d="M17.9 0L7.6 0L7.6 -49.3L17.9 -49.3L17.9 0" fill="#123A35"/>
  <path d="M 7.800000000000001 -60 a 5 5 0 1 0 10 0 a 5 5 0 1 0 -10 0 Z" fill="#32D08C"/>
  <path d="M 10.600000000000001 -63.4 L 2.5 -78" fill="none" stroke="#32D08C" stroke-width="3" stroke-linecap="round" stroke-linejoin="round"/>
  <path d="M 15 -63.4 L 23 -78" fill="none" stroke="#32D08C" stroke-width="3" stroke-linecap="round" stroke-linejoin="round"/>
  <path d="M -1 -81 a 3.5 3.5 0 1 0 7 0 a 3.5 3.5 0 1 0 -7 0 Z" fill="#32D08C"/>
  <path d="M 19.5 -81 a 3.5 3.5 0 1 0 7 0 a 3.5 3.5 0 1 0 -7 0 Z" fill="#32D08C"/>
</g>
</svg>
